<svg width="83" height="67" viewBox="0 0 83 67" fill="none" xmlns="http://www.w3.org/2000/svg">
<g clip-path="url(#clip0_36_143)">
<path d="M83 38.7695H0V57.4495H83V38.7695Z" fill="#45794E"/>
<path d="M83 0H0V40.2644H83V0Z" fill="#C62532"/>
<path d="M64.4267 18.7001C64.3453 18.6446 64.3181 18.3894 64.2149 18.3228C63.7534 18.0204 63.0395 18.836 62.5807 19.0468C60.6831 19.9262 59.1954 18.5253 57.3576 17.9844C53.4185 16.8221 48.7926 16.9441 44.7395 17.388C42.5352 17.6293 39.6141 18.5447 37.5482 18.5808C36.3076 18.603 34.752 18.1591 33.5331 18.0731C29.252 17.7652 24.9573 17.6265 20.6653 17.9011C19.5984 17.9705 15.7462 18.1758 15.0703 18.6723C14.9101 18.7916 14.7038 18.9469 14.7309 19.1744C14.7608 19.3048 15.3988 19.6515 15.5616 19.6931C17.1308 20.1065 22.0091 19.1467 24.0017 19.0856C26.4884 19.008 30.0338 19.2077 32.5314 19.4379C33.2861 19.5073 35.9031 19.818 36.218 20.4588C36.6388 21.3159 34.3584 22.9692 33.677 23.3298C32.1079 24.1565 30.9894 23.549 29.7841 23.9651C29.3117 24.1287 27.9978 25.5573 27.4223 25.9901C26.7463 26.4949 25.5871 27.2633 24.8487 27.6295C24.0452 28.029 22.8235 28.115 22.3322 28.4728C21.5992 29.0082 21.1594 29.9125 22.3783 30.14C25.7446 30.7724 27.8621 27.2661 30.737 26.8112C32.5721 26.5199 34.8118 26.9998 36.6714 26.7252C38.0369 26.5227 40.043 25.1496 41.4547 24.6114C46.0534 22.8527 48.3338 24.7279 52.6122 25.9041C55.3514 26.6586 58.1693 27.0803 60.9084 27.8431C63.0883 28.4506 67.3613 30.3813 69.3159 30.3674C69.6254 30.3674 69.9322 30.2842 70.2118 30.1594C70.5403 28.5505 68.1513 29.108 66.9405 28.6808C66.0257 28.3591 62.5508 26.1426 61.7201 25.4769C61.2939 25.1357 60.9274 24.8222 61.0414 24.212C61.1772 24.0483 64.5977 24.3174 65.0972 24.4172C65.6429 24.5282 66.1478 25.1052 66.6012 25.0358C66.9107 24.9859 68.3033 23.7931 68.4336 23.4824C68.887 22.4061 67.4916 19.6571 66.3732 19.191C65.8031 18.9525 64.9072 19.0385 64.4267 18.6973V18.7001Z" fill="white"/>
<path d="M27.5078 43.3262H20.0179L11.6973 54.7605H16.3557L18.4352 51.8284C18.4352 51.8284 18.7257 51.87 22.1381 52.1252C26.5061 52.4664 27.63 50.2556 28.3385 49.2764C32.4568 43.5786 27.5078 43.3262 27.5078 43.3262ZM24.6275 48.0558C23.7859 49.1404 23.0991 49.0434 23.0991 49.0434L21.4133 48.9157L22.8494 46.6189H24.6275C24.6275 46.6189 25.4691 46.9684 24.6275 48.053V48.0558Z" fill="white"/>
<path d="M33.6209 43.1992L28.2539 50.5974C28.2539 50.5974 25.5501 54.8916 30.0429 54.8916H35.4099C35.4099 54.8916 38.3228 54.5504 40.4865 51.3214C42.6501 48.0897 46.2254 43.2048 46.2254 43.2048H41.2982L35.9447 50.7001C35.6651 51.0607 35.3394 51.2993 34.924 51.4463C34.5629 51.5961 34.1014 51.6654 33.6644 51.3214C32.9776 50.7112 33.9141 49.6626 33.9141 49.6626L39.0612 43.202H33.6237L33.6209 43.1992Z" fill="white"/>
<path d="M38.7188 54.7658L47.0204 43.3203H51.4182L51.668 46.1914L56.036 43.3203H62.06L53.8533 54.7658H48.6736L52.0725 49.9529L48.0167 52.0251L47.2674 49.4092L43.7736 54.7658H38.7188Z" fill="white"/>
<path d="M70.33 43.2637H62.965L54.7285 54.6148L59.5553 54.8284L61.0945 52.3623H64.2572L62.6772 54.8284H67.6696C67.6696 54.8284 69.2496 52.7451 72.2466 48.1542C75.241 43.5633 70.3328 43.2664 70.3328 43.2664L70.33 43.2637ZM67.9166 47.8352C67.2923 49.003 66.4181 48.9392 66.4181 48.9392L63.7333 48.8116L63.8581 48.598L65.1884 46.5786H67.6017C67.6017 46.5786 68.5383 46.6646 67.9139 47.8324L67.9166 47.8352Z" fill="white"/>
<path d="M22.5125 67V59.7273H26.9017V60.5085H23.3932V62.9659H26.6744V63.7472H23.3932V66.2188H26.9585V67H22.5125ZM34.2561 59.7273V67H33.4039L29.4408 61.2898H29.3698V67H28.4891V59.7273H29.3414L33.3186 65.4517H33.3896V59.7273H34.2561ZM36.0184 67V59.7273H40.4076V60.5085H36.8991V62.9659H40.1803V63.7472H36.8991V66.2188H40.4644V67H36.0184ZM41.9949 67V59.7273H44.4523C45.0205 59.7273 45.4869 59.8243 45.8515 60.0185C46.2161 60.2102 46.4859 60.4742 46.6611 60.8104C46.8363 61.1465 46.9239 61.5289 46.9239 61.9574C46.9239 62.3859 46.8363 62.7659 46.6611 63.0973C46.4859 63.4287 46.2172 63.6892 45.855 63.8786C45.4928 64.0656 45.03 64.1591 44.4665 64.1591H42.4779V63.3636H44.4381C44.8264 63.3636 45.1389 63.3068 45.3756 63.1932C45.6147 63.0795 45.7876 62.9186 45.8941 62.7102C46.003 62.4995 46.0574 62.2486 46.0574 61.9574C46.0574 61.6662 46.003 61.4117 45.8941 61.1939C45.7852 60.9761 45.6112 60.808 45.3721 60.6896C45.133 60.5689 44.8169 60.5085 44.4239 60.5085H42.8756V67H41.9949ZM45.4182 63.733L47.208 67H46.1853L44.4239 63.733H45.4182ZM53.363 62C53.2849 61.7609 53.1819 61.5466 53.0541 61.3572C52.9286 61.1655 52.7783 61.0021 52.6031 60.8672C52.4303 60.7322 52.2338 60.6293 52.0136 60.5582C51.7934 60.4872 51.5519 60.4517 51.2892 60.4517C50.8583 60.4517 50.4665 60.563 50.1137 60.7855C49.761 61.008 49.4804 61.3359 49.2721 61.7692C49.0638 62.2024 48.9596 62.7339 48.9596 63.3636C48.9596 63.9934 49.065 64.5249 49.2757 64.9581C49.4864 65.3913 49.7716 65.7192 50.1315 65.9418C50.4913 66.1643 50.8962 66.2756 51.346 66.2756C51.7626 66.2756 52.1296 66.1868 52.4468 66.0092C52.7664 65.8293 53.015 65.576 53.1926 65.2493C53.3725 64.9202 53.4624 64.5331 53.4624 64.0881L53.7323 64.1449H51.5448V63.3636H54.3147V64.1449C54.3147 64.7438 54.1869 65.2647 53.9312 65.7074C53.6779 66.1501 53.3275 66.4934 52.8801 66.7372C52.435 66.9787 51.9236 67.0994 51.346 67.0994C50.702 67.0994 50.1362 66.9479 49.6485 66.6449C49.1632 66.3419 48.7844 65.911 48.5122 65.3523C48.2423 64.7936 48.1073 64.1307 48.1073 63.3636C48.1073 62.7884 48.1843 62.2711 48.3382 61.8118C48.4944 61.3501 48.7146 60.9571 48.9987 60.6328C49.2828 60.3085 49.6189 60.0599 50.0072 59.8871C50.3954 59.7143 50.8228 59.6278 51.2892 59.6278C51.6727 59.6278 52.0302 59.6858 52.3616 59.8018C52.6954 59.9155 52.9925 60.0777 53.2529 60.2884C53.5157 60.4967 53.7347 60.7464 53.9099 61.0376C54.0851 61.3265 54.2058 61.6473 54.2721 62H53.363ZM54.9735 59.7273H55.982L57.999 63.1222H58.0843L60.1013 59.7273H61.1098L58.482 64.0028V67H57.6013V64.0028L54.9735 59.7273Z" fill="black"/>
</g>
<defs>
<clipPath id="clip0_36_143">
<rect width="83" height="67" fill="white"/>
</clipPath>
</defs>
</svg>
