<svg width="46" height="57" viewBox="0 0 46 57" fill="none" xmlns="http://www.w3.org/2000/svg">
<path d="M24.4783 41.286C24.3898 41.286 24.3013 41.286 24.2128 41.2805C23.8051 41.2614 23.2741 41.1439 23.0407 40.7012C23.0219 40.663 23.0058 40.6247 22.9924 40.5837C22.9013 40.2831 23.0112 39.9334 23.1453 39.7093C23.3036 39.4415 23.5557 39.2038 23.9151 38.9824C24.6526 38.5288 25.4814 38.2419 26.2806 37.9659L27.23 37.6353C28.0936 37.3374 28.9868 37.0259 29.8557 36.6925C32.1784 35.7935 34.1711 34.8316 35.9439 33.7523C37.6497 32.7111 38.8941 31.6974 39.857 30.5551C40.5677 29.7135 41.1282 28.8036 41.4769 27.9264C43.9685 21.6415 38.7493 14.4602 36.3462 11.6211C37.1159 12.2988 37.8776 13.0666 38.6501 13.9356C40.4604 15.9714 41.9248 18.1137 43.0057 20.3025C43.7459 21.8027 44.175 23.1772 44.3118 24.5025C44.6578 27.8198 43.0808 31.4405 40.093 34.184C37.7784 36.3127 34.6994 38.1053 30.6818 39.6683C29.3381 40.1902 27.7477 40.7668 26.1331 41.0892C25.6825 41.1794 25.0844 41.2832 24.4783 41.2832V41.286Z" fill="url(#paint0_linear_273_76)"/>
<path d="M37.6866 13.0893C37.9736 13.3871 38.2633 13.6987 38.5529 14.0238C40.3552 16.0514 41.8143 18.1828 42.8897 20.3607C43.6246 21.8472 44.0457 23.2053 44.1825 24.5142C44.5231 27.7906 42.9622 31.3675 40.0066 34.0864C37.7027 36.2042 34.6372 37.9886 30.6356 39.5461C29.2973 40.0653 27.7149 40.6419 26.1084 40.9616C25.6632 41.0518 25.0731 41.1529 24.475 41.1529C24.3892 41.1529 24.3034 41.1529 24.2175 41.1474C23.8447 41.1283 23.3566 41.0245 23.1528 40.6392C23.1367 40.6091 23.126 40.579 23.1152 40.5463C23.0509 40.3331 23.1072 40.0298 23.2574 39.7784C23.4049 39.5297 23.6436 39.3057 23.9815 39.0953C24.7057 38.6498 25.4915 38.3766 26.3229 38.0897L26.6099 37.9913C26.8271 37.9148 27.0471 37.8383 27.2643 37.7645C28.1306 37.4639 29.0291 37.1524 29.9034 36.8163C32.2341 35.9145 34.2322 34.9499 36.0104 33.8651C37.7295 32.8158 38.982 31.7938 39.9556 30.6434C40.6771 29.7908 41.243 28.8699 41.597 27.9791C42.9273 24.6235 42.2568 20.4946 39.6579 16.0377C39.0142 14.9338 38.3276 13.9364 37.692 13.092M35.1307 10.4688C35.1307 10.4688 44.5285 19.8634 41.353 27.8807C40.9802 28.818 40.4008 29.7088 39.7572 30.474C38.6709 31.761 37.2977 32.7748 35.8763 33.6438C33.9533 34.816 31.9042 35.7642 29.8096 36.5758C28.7233 36.9966 27.621 37.3655 26.5241 37.7481C25.6068 38.0678 24.6842 38.3602 23.8474 38.8766C23.5283 39.0734 23.2279 39.3221 23.0348 39.6472C22.8685 39.926 22.7719 40.3058 22.8685 40.6282C22.8819 40.6774 22.9007 40.7239 22.9248 40.7676C23.1742 41.2403 23.7187 41.3906 24.2041 41.4152C24.2953 41.4207 24.3838 41.4207 24.475 41.4207C25.0409 41.4207 25.5988 41.336 26.1566 41.2239C27.7203 40.9124 29.241 40.3741 30.7268 39.7948C34.1008 38.4832 37.4774 36.7698 40.1782 34.2859C42.8468 31.8321 44.8288 28.2496 44.4373 24.4923C44.2817 23.0086 43.7721 21.574 43.1177 20.2487C41.9698 17.926 40.4518 15.7782 38.7407 13.8517C37.6437 12.6166 36.4475 11.4579 35.128 10.4715L35.1307 10.4688Z" fill="#CD8232"/>
<path d="M7.02387 28.7078C6.31046 27.9673 5.61313 27.1393 4.91581 26.2075C3.27709 24.0241 1.99241 21.767 1.09125 19.4935C0.474386 17.936 0.160591 16.5314 0.131089 15.1979C0.0559924 11.8642 1.92268 8.38832 5.12232 5.90441C7.60319 3.97794 10.8162 2.45043 14.9492 1.23169C16.3305 0.82454 17.9611 0.384595 19.5972 0.19878C20.0451 0.146861 20.4098 0.125 20.7424 0.125C21.0213 0.125 21.2788 0.141396 21.5282 0.174187C21.9305 0.228838 22.4535 0.39006 22.6493 0.849134C22.6654 0.88739 22.6788 0.928378 22.6869 0.969367C22.7539 1.27542 22.6144 1.61426 22.4616 1.8274C22.2819 2.08153 22.011 2.2974 21.6355 2.48595C20.8631 2.87671 20.0156 3.09258 19.1949 3.30026L18.2347 3.54346C17.3443 3.77026 16.4243 4.00253 15.5286 4.26759C13.1416 4.96713 11.0791 5.75685 9.22313 6.68319C7.4369 7.57675 6.11467 8.48396 5.06332 9.53874C4.28553 10.3175 3.65526 11.1756 3.23686 12.0227C0.243732 18.0753 4.85949 25.6746 7.02387 28.705V28.7078Z" fill="url(#paint1_linear_273_76)"/>
<path d="M20.7423 0.259595C21.0158 0.259595 21.2679 0.275991 21.512 0.308782C21.8821 0.357968 22.3595 0.502795 22.5312 0.907217C22.5446 0.937275 22.5553 0.970066 22.5607 1.00286C22.6063 1.22146 22.5285 1.51658 22.3568 1.75705C22.1879 1.99205 21.9358 2.19426 21.5791 2.37461C20.82 2.75991 20.0154 2.96212 19.1652 3.17799L18.8729 3.25177C18.6503 3.30915 18.425 3.36654 18.2024 3.42392C17.312 3.65073 16.3947 3.883 15.4962 4.14806C13.1012 4.85033 11.0307 5.64278 9.16935 6.57185C7.36972 7.47087 6.03944 8.38629 4.97736 9.44926C4.19153 10.239 3.55053 11.1079 3.12677 11.966C1.52829 15.1986 1.86086 19.3713 4.08693 24.0303C4.63674 25.1835 5.24288 26.2382 5.80879 27.1318C5.54595 26.8121 5.28311 26.476 5.02027 26.1262C3.3896 23.9538 2.1076 21.7049 1.21449 19.4423C0.60299 17.8984 0.291875 16.5102 0.262373 15.1931C0.189958 11.9004 2.03519 8.46553 5.20265 6.00621C7.6701 4.09067 10.8698 2.56862 14.9866 1.35536C16.3625 0.950938 17.9878 0.510993 19.6158 0.32791C20.061 0.278723 20.4204 0.25413 20.7476 0.25413M20.7423 0C20.356 0 19.9698 0.0300585 19.5836 0.0737798C18.0012 0.251397 16.4403 0.661284 14.9116 1.10943C11.441 2.13141 7.93831 3.55509 5.04441 5.80127C2.18538 8.02012 -0.080926 11.4222 0.00221652 15.2013C0.0344007 16.6933 0.425976 18.1662 0.973108 19.5434C1.92791 21.9563 3.26623 24.2243 4.81376 26.2874C5.8061 27.61 6.90573 28.8642 8.13946 29.9627C8.13946 29.9627 -0.461772 19.8057 3.35474 12.0862C3.79995 11.1817 4.45168 10.3428 5.15705 9.63781C6.34519 8.4464 7.79616 7.55285 9.28468 6.80686C11.2962 5.80127 13.415 5.02795 15.5686 4.39945C16.6844 4.07428 17.8135 3.79555 18.9373 3.50863C19.8786 3.26817 20.8227 3.05229 21.6971 2.60961C22.0323 2.44019 22.3488 2.21885 22.5687 1.91007C22.7565 1.64501 22.8852 1.27611 22.8155 0.948205C22.8047 0.899019 22.7886 0.849832 22.7699 0.803379C22.5607 0.311514 22.0296 0.114768 21.5469 0.0519192C21.2787 0.0163956 21.0105 0 20.7449 0H20.7423Z" fill="#CD8232"/>
<path d="M22.073 37.2486C30.8701 37.2486 38.0015 29.9827 38.0015 21.0198C38.0015 12.0569 30.8701 4.79102 22.073 4.79102C13.276 4.79102 6.14453 12.0569 6.14453 21.0198C6.14453 29.9827 13.276 37.2486 22.073 37.2486Z" fill="url(#paint2_linear_273_76)"/>
<path d="M7.87709 46.0439C6.77478 45.6859 4.54334 45.0574 3.63145 46.0493C2.79198 46.9648 4.18663 48.1179 4.83299 48.6453C5.96749 49.5689 7.62498 50.4488 7.93073 52.0282C8.3223 54.0476 7.19317 55.5068 5.33185 56.0315C3.65827 56.5042 1.76477 56.2036 0.182377 55.5396L0 53.3289C0.512265 53.594 1.10767 53.7579 1.6709 53.8754C2.52646 54.0531 4.92955 54.4356 5.03147 53.0885C5.11997 51.9326 3.2506 50.6947 2.47818 50.0061C1.18277 48.8502 -0.0134105 47.5222 0.563223 45.6012C1.20423 43.4671 4.01498 43.3414 5.8173 43.4452C6.04259 43.4589 7.52574 43.6939 7.60352 43.8168L7.8744 46.0466L7.87709 46.0439Z" fill="#39375B"/>
<path d="M10.0078 56.0095L10.4986 43.7429L10.6086 43.7074C11.7779 43.7347 12.9553 43.6582 14.122 43.7539L19.3815 52.591L19.6738 43.6719L22.3719 43.7101C22.3907 43.8304 22.337 43.9451 22.3344 44.0626C22.2164 47.4456 22.0313 50.834 21.8623 54.2087C21.8328 54.8099 21.8382 55.411 21.7899 56.0095H18.4347L13.0921 47.2761L12.6737 56.0095H10.0105H10.0078Z" fill="#39375B"/>
<path d="M24.377 55.9973L24.8865 43.698C25.2432 43.6597 25.6026 43.6761 25.962 43.6597C27.5846 43.5942 29.3762 43.5614 30.9935 43.6597C32.3801 43.7445 33.528 44.7637 33.8042 46.1491C34.4211 49.2615 31.8088 51.2017 28.9873 51.0568C28.8291 51.0486 28.2364 50.9913 28.121 50.9366C28.0138 50.8874 27.6678 49.2779 27.6061 49.0457L27.7482 48.9391C29.3709 49.2807 31.259 48.8462 31.0471 46.7667C30.9908 46.2202 30.7709 45.9332 30.2559 45.7884C29.387 45.5398 28.3678 45.7064 27.4774 45.742L27.2226 55.9973H24.377Z" fill="#39375B"/>
<path d="M45.0125 43.8189L45.1278 46.1143C42.9393 45.4038 40.2626 45.1442 38.6749 47.1746C37.1783 49.0874 37.0227 52.0167 39.2247 53.4513C40.5228 54.2957 41.6465 54.1754 43.1002 53.9486C43.7305 53.8502 44.358 53.7054 44.983 53.5825L44.5994 55.8505C44.5458 55.9051 43.878 56.0363 43.7492 56.0609C40.5898 56.6457 36.2315 55.9653 35.089 52.4238C34.4265 50.3689 34.5982 47.6063 36.0116 45.9121C38.1653 43.3298 41.9684 43.032 45.0098 43.8189H45.0125Z" fill="#39375B"/>
<defs>
<linearGradient id="paint0_linear_273_76" x1="30.2527" y1="30.383" x2="46.3147" y2="15.8605" gradientUnits="userSpaceOnUse">
<stop offset="0.2" stop-color="#CD8232"/>
<stop offset="0.28" stop-color="#D08D34"/>
<stop offset="0.43" stop-color="#D9AD3A"/>
<stop offset="0.63" stop-color="#E8E044"/>
<stop offset="0.67" stop-color="#EDEE47"/>
</linearGradient>
<linearGradient id="paint1_linear_273_76" x1="16.4485" y1="3.60084" x2="-2.90627" y2="27.5661" gradientUnits="userSpaceOnUse">
<stop offset="0.2" stop-color="#CD8232"/>
<stop offset="0.28" stop-color="#D08D34"/>
<stop offset="0.43" stop-color="#D9AD3A"/>
<stop offset="0.63" stop-color="#E8E044"/>
<stop offset="0.67" stop-color="#EDEE47"/>
</linearGradient>
<linearGradient id="paint2_linear_273_76" x1="27.8742" y1="13.8195" x2="12.5625" y2="32.126" gradientUnits="userSpaceOnUse">
<stop stop-color="#5F6F9D"/>
<stop offset="0.23" stop-color="#586491"/>
<stop offset="0.64" stop-color="#464A71"/>
<stop offset="0.89" stop-color="#39375B"/>
</linearGradient>
</defs>
</svg>
