<svg width="82" height="67" viewBox="0 0 82 67" fill="none" xmlns="http://www.w3.org/2000/svg">
<path d="M43.7195 12.5449C41.6489 14.2509 39.6643 16.5089 38.511 18.9806C36.1428 24.0597 37.4543 28.7311 38.4708 31.7603C39.852 35.888 42.652 37.9712 45.9885 39.4914C50.7464 41.6606 56.7246 41.8077 62.153 40.3569C64.0679 39.8465 67.0396 38.784 67.686 37.7909C68.3887 36.7174 68.4986 34.6397 66.9887 33.7298C65.5162 32.8394 65.3741 33.519 60.9917 34.526C57.9422 35.225 54.6111 35.3471 50.6123 33.5634C48.0885 32.4372 46.3827 30.709 45.8007 28.3455C44.1271 21.5687 47.7425 19.0555 48.4479 18.5978L43.7168 12.5449H43.7195Z" fill="url(#paint0_linear_36_153)"/>
<path d="M48.706 20.5243C46.8232 20.2664 41.2983 19.6616 35.5185 18.5992C26.574 16.957 16.0605 14.6823 12.7026 14.4382C6.24161 13.9694 5.16343 22.652 10.321 24.1361C13.2417 24.9766 21.2797 24.0945 23.2349 28.0834C23.8303 29.2984 25.4046 33.8811 27.1882 39.5539C27.8882 41.7786 33.574 41.4291 32.5147 36.6883C31.9112 33.9809 30.5353 26.6715 30.5353 26.6715C30.5353 26.6715 46.8447 28.4607 48.1723 28.58L48.7033 20.5216L48.706 20.5243Z" fill="url(#paint1_linear_36_153)"/>
<path d="M57.2934 16.0604C59.3639 16.1159 62.9685 16.6679 64.5911 17.7914L73.6403 19.6361C73.7261 14.4404 70.9717 11.6442 67.8847 10.0325C65.5406 8.80919 62.2551 7.81334 57.3202 8.02971C52.6025 8.23775 47.6435 9.30574 43.6875 12.5679L48.4159 18.6319C50.6473 17.1783 53.45 15.955 57.2907 16.0604H57.2934Z" fill="url(#paint2_linear_36_153)"/>
<path d="M64.4462 17.6934C64.4462 17.6934 64.9236 18.0096 65.1301 18.2038C66.1171 19.1358 66.4416 20.2482 63.4512 20.7586L65.8167 28.3233C71.1995 26.8309 73.5731 23.5465 73.6402 19.5381L64.4462 17.6934Z" fill="url(#paint3_linear_36_153)"/>
<path d="M63.543 20.7481C60.8931 21.2031 55.7517 21.4943 48.6658 20.5234L48.1348 28.5819C59.6433 29.611 63.6878 28.9092 65.9085 28.2934L63.543 20.7481Z" fill="url(#paint4_linear_36_153)"/>
<path d="M7.00268 49.8547C7.00268 49.9962 7.10996 50.1072 7.24138 50.1072H9.41113V56.1017L10.8406 56.1073V50.1072H13.0104C13.1418 50.1072 13.2491 49.9962 13.2491 49.8547V48.9282C13.2491 48.7867 13.1418 48.6758 13.0104 48.6758H7.2387C7.10728 48.6758 7 48.7867 7 48.9282V49.8547H7.00268Z" fill="#FC0103"/>
<path d="M12.0938 53.3699C12.0938 54.9483 13.3731 56.1771 14.9581 56.1771C16.5432 56.1771 17.8333 54.9483 17.8333 53.3699C17.8333 51.7915 16.5539 50.5293 14.9581 50.5293C13.3623 50.5293 12.0938 51.7804 12.0938 53.3699ZM13.6788 53.3588C13.6788 52.6126 14.2313 51.9995 14.9581 51.9995C15.685 51.9995 16.2509 52.6126 16.2509 53.3588C16.2509 54.105 15.6984 54.7069 14.9581 54.7069C14.2179 54.7069 13.6788 54.105 13.6788 53.3588Z" fill="#FC0103"/>
<path d="M18.7708 54.516C18.7708 55.7337 19.672 56.2275 20.5839 56.2275C21.2034 56.2275 21.8364 56.1387 22.2387 55.8197C22.8984 55.301 22.3459 54.2441 21.4475 54.7656C21.1819 54.9209 20.7421 54.8405 20.6616 54.8072C20.4819 54.7323 20.1655 54.6685 20.1842 54.1415V51.8418H21.5118C22.5283 51.8418 22.5149 50.5159 21.5118 50.5159H20.1842V48.6989L18.7708 48.6934V50.5159H18.0762V51.8418H18.7708V54.5132V54.516Z" fill="#FC0103"/>
<path d="M22.7734 53.347C22.7734 55.0696 24.042 56.1764 25.4099 56.1764C26.1152 56.1764 26.8501 55.8685 27.0995 55.4524V56.1848L28.411 56.1792V51.2249C28.411 50.254 27.1264 50.3012 27.1264 51.1722C26.8769 50.7561 26.126 50.5314 25.4206 50.5314C24.0528 50.5314 22.7734 51.616 22.7734 53.3498V53.347ZM24.3585 53.3581C24.3585 52.6119 24.911 51.9988 25.6512 51.9988C26.3915 51.9988 26.944 52.6119 26.944 53.3581C26.944 54.1043 26.3915 54.7173 25.6512 54.7173C24.911 54.7173 24.3585 54.1043 24.3585 53.3581Z" fill="#FC0103"/>
<path d="M31.1277 56.1079V49.3338C31.1277 48.4739 29.6445 48.5016 29.6445 49.3338V56.1079H31.1277Z" fill="#FC0103"/>
<path d="M32.4125 48.5938C32.2704 48.5938 32.1738 48.7047 32.1738 48.8351V55.8533C32.1738 55.9947 32.2704 56.1057 32.4125 56.1057H37.2107L37.216 54.5911H33.8018V53.157H36.4785C36.6206 53.157 36.7172 53.0377 36.7172 52.9045V51.9392C36.7172 51.7977 36.6206 51.6867 36.4785 51.6867H33.8018V50.1083H36.8861C37.0283 50.1083 37.1356 49.9974 37.1356 49.8559V48.8462C37.1356 48.7047 37.0283 48.5938 36.8861 48.5938H32.4125Z" fill="#FC0103"/>
<path d="M42.0479 55.8848C42.0479 56.0152 42.1685 56.1039 42.2866 56.1039H43.2226C43.3433 56.1039 43.4613 56.0152 43.4613 55.8848V52.9249C43.4613 51.6212 42.7345 50.4395 41.3344 50.4395C40.5084 50.4395 39.7145 50.6891 39.398 51.0747C39.398 50.2869 38.1562 50.2536 38.1562 51.0053V56.1122L39.5589 56.1178V53.1053C39.5589 51.2467 42.0479 51.5435 42.0479 53.1053V55.8876V55.8848Z" fill="#FC0103"/>
<path d="M53.5079 50.3926C52.7355 50.3926 52.1026 50.8669 51.8102 51.3385V50.9834C51.8102 50.3205 50.6328 50.2511 50.6328 51.0056V56.0876L52.0167 56.107V53.5161C52.0167 52.7366 52.5236 51.8767 53.0681 51.7851L53.6286 51.6908C54.5217 51.6908 54.3796 50.3954 53.5079 50.3954V50.3926Z" fill="#FC0103"/>
<path d="M57.21 57.1419C56.4939 57.1419 55.81 57.1003 55.4426 56.8895C54.5629 56.3846 54.0426 57.4942 54.5924 57.8216C55.3326 58.2626 55.7027 58.4818 57.092 58.4818C58.8729 58.4818 59.8384 57.4637 59.8384 55.9713V51.0059C59.8384 50.3512 58.6073 50.2763 58.6073 50.9227V51.2639C58.3472 50.8478 57.6016 50.612 56.8855 50.612C55.5177 50.612 54.2812 51.6855 54.2812 53.386C54.2812 55.0864 55.5069 56.1378 56.9499 56.1378C57.6445 56.1378 58.2077 55.8298 58.4464 55.4581V55.9186C58.4464 56.6315 58.0468 57.1447 57.2127 57.1447L57.21 57.1419ZM55.861 53.386C55.861 52.6398 56.4135 52.06 57.1403 52.06C57.8671 52.06 58.433 52.6425 58.433 53.386C58.433 54.1294 57.8805 54.7119 57.1403 54.7119C56.4 54.7119 55.861 54.1405 55.861 53.386Z" fill="#FC0103"/>
<path d="M61.713 49.8607C62.1743 49.8607 62.5578 49.4529 62.5578 48.973C62.5578 48.4931 62.1743 48.0742 61.713 48.0742C61.2517 48.0742 60.8574 48.482 60.8574 48.973C60.8574 49.464 61.241 49.8607 61.713 49.8607ZM62.2065 56.1049C62.3245 56.1049 62.413 56.0023 62.413 55.8802V51.2782C62.413 50.3073 60.9969 50.3073 60.9969 51.2782V55.8802C60.9969 56.0023 61.0961 56.1049 61.2141 56.1049H62.2065Z" fill="#FC0103"/>
<path d="M66.0927 50.4355C64.4325 50.4355 63.2363 51.7532 63.2363 53.3871C63.2363 55.0209 64.4084 56.2831 66.1141 56.2831C67.2969 56.2831 67.9996 55.9225 68.4421 55.3316C68.713 54.849 68.0774 54.2581 67.5115 54.5965C67.0099 54.9488 66.6693 54.8989 66.149 54.8989C65.5187 54.8989 64.9662 54.455 64.8885 53.7643H68.4233C68.646 53.7643 68.6996 53.6395 68.6996 53.5036V53.1957C68.6996 51.7754 67.7984 50.4355 66.0927 50.4355ZM67.2889 52.738H64.9206C65.0762 52.1249 65.5616 51.7504 66.1034 51.7504C66.6452 51.7504 67.144 52.0694 67.2862 52.738H67.2889Z" fill="#FC0103"/>
<path d="M71.5836 50.3906C70.13 50.3906 69.2288 51.1895 69.2288 52.202C69.2288 53.1036 69.8269 53.6611 70.7146 53.8442L71.6158 54.0384C72.1334 54.1411 72.4043 54.2548 72.4043 54.5294C72.4043 54.768 72.1576 54.9954 71.6507 54.9954C71.1089 54.9954 70.5484 54.8928 70.1997 54.5849C69.4246 54.1688 68.738 55.0481 69.5104 55.6473C69.961 55.9663 70.6717 56.2631 71.5943 56.2631C73.0936 56.2631 74.0725 55.4531 74.0725 54.3824C74.0725 53.3116 73.3055 52.89 72.3721 52.7069L71.5058 52.5349C71.0445 52.4434 70.8756 52.2964 70.8756 52.08C70.8756 51.8525 71.1572 51.6694 71.5863 51.6694C72.0476 51.6694 72.4392 51.7194 72.7771 51.9468C73.4557 52.3518 74.1503 51.4891 73.52 50.9426C73.1821 50.6347 72.6806 50.3934 71.589 50.3934L71.5836 50.3906Z" fill="#FC0103"/>
<path d="M47.163 50.4355C45.5028 50.4355 44.3066 51.7532 44.3066 53.3871C44.3066 55.0209 45.4787 56.2831 47.1844 56.2831C48.3672 56.2831 49.0699 55.9225 49.5124 55.3316C49.7833 54.849 49.1477 54.2581 48.5818 54.5965C48.0802 54.9488 47.7396 54.8989 47.2193 54.8989C46.589 54.8989 46.0365 54.455 45.9588 53.7643H49.4937C49.7163 53.7643 49.7699 53.6395 49.7699 53.5036V53.1957C49.7699 51.7754 48.8688 50.4355 47.163 50.4355ZM48.3592 52.738H45.9909C46.1465 52.1249 46.632 51.7504 47.1737 51.7504C47.7155 51.7504 48.2143 52.0694 48.3565 52.738H48.3592Z" fill="#FC0103"/>
<defs>
<linearGradient id="paint0_linear_36_153" x1="42.8519" y1="23.3165" x2="60.7668" y2="42.1284" gradientUnits="userSpaceOnUse">
<stop stop-color="#0186F5"/>
<stop offset="0.13" stop-color="#0186F5"/>
<stop offset="0.31" stop-color="#35C2B0"/>
<stop offset="0.67" stop-color="#AAD825"/>
<stop offset="1" stop-color="#FED700"/>
</linearGradient>
<linearGradient id="paint1_linear_36_153" x1="28.9096" y1="41.1932" x2="29.0638" y2="29.0095" gradientUnits="userSpaceOnUse">
<stop stop-color="#FF7F00"/>
<stop offset="1" stop-color="#FE0201"/>
</linearGradient>
<linearGradient id="paint2_linear_36_153" x1="46.3132" y1="15.7809" x2="65.3953" y2="16.1405" gradientUnits="userSpaceOnUse">
<stop stop-color="#0186F5"/>
<stop offset="0.2" stop-color="#0186F5"/>
<stop offset="1" stop-color="#3156FD"/>
</linearGradient>
<linearGradient id="paint3_linear_36_153" x1="68.3169" y1="25.8678" x2="70.1662" y2="22.3304" gradientUnits="userSpaceOnUse">
<stop stop-color="#8434D5"/>
<stop offset="0.85" stop-color="#3156FD"/>
<stop offset="1" stop-color="#3156FD"/>
</linearGradient>
<linearGradient id="paint4_linear_36_153" x1="64.4465" y1="26.7319" x2="49.7954" y2="27.4072" gradientUnits="userSpaceOnUse">
<stop stop-color="#8434D5"/>
<stop offset="1" stop-color="#FE0201"/>
</linearGradient>
</defs>
</svg>
