<svg width="68" height="54" viewBox="0 0 68 54" fill="none" xmlns="http://www.w3.org/2000/svg">
<path d="M53.193 1.75H14.7715V40.4242H53.193V1.75Z" fill="#F7F746" stroke="black" stroke-width="1.87" stroke-miterlimit="10"/>
<path d="M49.5966 32.7342H39.6906L33.6558 26.6596L33.6693 26.646H33.6422L17.5059 10.4062H27.4146L33.6558 16.6885L33.6368 16.7076H33.6748L43.5482 26.646L49.5966 32.7342Z" fill="black"/>
<path d="M33.6406 26.6465H33.6681L33.6544 26.6601L33.6406 26.6465Z" fill="black"/>
<path d="M33.6752 16.7086H33.6367L33.6559 16.6895L33.6752 16.7086Z" fill="black"/>
<path d="M33.6681 26.6465L27.6197 32.7347H17.7109L23.7593 26.6465H33.6681Z" fill="black"/>
<path d="M49.8029 10.4062L43.5427 16.7076H33.6367L39.8969 10.4062H49.8029Z" fill="black"/>
<path d="M49.3186 44.6172V53.0691H47.3287V51.4076L43.4684 47.5219V53.0691H41.4785V46.5682L43.4467 44.6363L47.3287 48.5439V44.6172H49.3186Z" fill="black"/>
<path d="M11.1612 44.6406V53.0706H9.25V46.5644L11.1612 44.6406Z" fill="black"/>
<path d="M19.3085 51.1492L17.7068 53.0702H12.1172V46.6924L14.1451 44.6484V51.1492H19.3085Z" fill="black"/>
<path d="M25.8894 51.1481H31.8183V53.0691H23.9375V46.5519L25.55 44.6172H31.8183V46.6612H25.8894V51.1481Z" fill="black"/>
<path d="M34.1286 44.618L32.7305 46.2958V53.0698H40.5706V44.6152H34.1286V44.618ZM38.6594 51.1488H34.5982V46.6619H38.6594V51.1488Z" fill="black"/>
<path d="M1.93129 44.618L0.533203 46.2958V53.0698H8.37333V44.6152H1.93129V44.618ZM6.46216 51.1488H2.40093V46.6619H6.46216V51.1488Z" fill="black"/>
<path d="M60.9938 44.618L59.5957 46.2958V53.0698H67.4358V44.6152H60.9938V44.618ZM65.5247 51.1488H61.4634V46.6619H65.5247V51.1488Z" fill="black"/>
<path d="M52.8209 46.6612V51.1481H56.6812V48.7051H58.6711V53.0691H51.8273L50.3125 51.547V46.7049L50.3478 46.6612L52.0554 44.6172H58.6711V46.6612H52.8209Z" fill="black"/>
</svg>
